<svg xmlns="http://www.w3.org/2000/svg">
    <symbol id="mobile-menu-open" viewBox="0 0 488 488">
		    <path d="M64.192,108.444h359.617c29.943,0,54.223-24.278,54.223-54.222C478.031,24.278,453.754,0,423.809,0H64.192
			C34.248,0,9.969,24.278,9.969,54.222C9.969,84.166,34.248,108.444,64.192,108.444z"/>
		    <path d="M423.809,189.778H64.192c-29.944,0-54.223,24.278-54.223,54.222c0,29.943,24.278,54.223,54.223,54.223h359.617
			c29.945,0,54.223-24.279,54.223-54.223C478.031,214.056,453.754,189.778,423.809,189.778z"/>
		    <path d="M423.809,379.557H64.192c-29.944,0-54.223,24.277-54.223,54.222C9.969,463.722,34.248,488,64.192,488h359.617
			c29.945,0,54.223-24.278,54.223-54.222C478.031,403.834,453.754,379.557,423.809,379.557z"/>
    </symbol>
    <symbol id="mobile-menu-close" viewBox="0 0 469.404 469.404">
	    <path d="M310.4,235.083L459.88,85.527c12.545-12.546,12.545-32.972,0-45.671L429.433,9.409c-12.547-12.546-32.971-12.546-45.67,0
		L234.282,158.967L85.642,10.327c-12.546-12.546-32.972-12.546-45.67,0L9.524,40.774c-12.546,12.546-12.546,32.972,0,45.671
		l148.64,148.639L9.678,383.495c-12.546,12.546-12.546,32.971,0,45.67l30.447,30.447c12.546,12.546,32.972,12.546,45.67,0
		l148.487-148.41l148.792,148.793c12.547,12.546,32.973,12.546,45.67,0l30.447-30.447c12.547-12.546,12.547-32.972,0-45.671
		L310.4,235.083z"/>
    </symbol>
    <symbol id="down-arrow" viewBox="0 0 25.93 25.93">
		<path d="M25.397,4.554h-2.042l-9.974,12.644c-0.101,0.124-0.256,0.197-0.416,0.197c-0.164,0-0.315-0.073-0.419-0.197L2.575,4.554
			H0.532c-0.206,0-0.392,0.115-0.479,0.299c-0.09,0.184-0.064,0.403,0.06,0.561l12.435,15.762c0.104,0.125,0.255,0.2,0.419,0.2
			c0.16,0,0.315-0.075,0.416-0.2L25.816,5.413c0.128-0.157,0.148-0.377,0.058-0.561C25.789,4.669,25.601,4.554,25.397,4.554z"/>
	</symbol>
	<symbol id="scales" viewBox="0 0 512 512">
		<path d="M511.459,287.329l0.006-0.002L429.214,73.474c8.491-4.035,14.377-12.692,14.377-22.701c0-4.427-3.589-8.017-8.017-8.017
			c-4.427,0-8.017,3.589-8.017,8.017c0,5.01-4.076,9.086-9.086,9.086c-3.416,0-6.513-1.889-8.083-4.929
			c-3.936-7.622-11.015-12.174-18.937-12.174H288.697c-3.606-14.707-16.895-25.653-32.699-25.653S226.908,28.049,223.3,42.756
			H120.545c-7.922,0-15.001,4.551-18.937,12.174c-1.568,3.04-4.665,4.929-8.081,4.929c-5.01,0-9.086-4.076-9.086-9.086
			c0-4.427-3.589-8.017-8.017-8.017s-8.017,3.589-8.017,8.017c0,10.009,5.885,18.666,14.377,22.701L0.534,287.327l0.006,0.002
			C0.197,288.223,0,289.19,0,290.205c0,51.572,41.956,93.528,93.528,93.528s93.528-41.956,93.528-93.528
			c0-1.014-0.197-1.982-0.541-2.875l0.006-0.002L104.273,73.478c4.892-2.311,8.996-6.178,11.585-11.193
			c0.423-0.821,2.013-3.496,4.69-3.496h102.755c1.33,5.422,3.974,10.333,7.58,14.372V444.66h-68.944
			c-13.851,0-25.119,11.268-25.119,25.119c0,13.851,11.268,25.119,25.119,25.119h188.125c13.851,0,25.119-11.268,25.119-25.119
			c0-13.851-11.269-25.119-25.12-25.119h-68.944V73.161c3.604-4.039,6.249-8.95,7.58-14.372h102.755c2.677,0,4.267,2.675,4.69,3.496
			c2.589,5.014,6.692,8.883,11.585,11.193l-82.25,213.848l0.006,0.002c-0.344,0.894-0.541,1.861-0.541,2.875
			c0,51.572,41.956,93.528,93.528,93.528S512,341.777,512,290.205C512,289.19,511.803,288.223,511.459,287.329z M93.528,367.699
			c-40.024,0-73.058-30.501-77.083-69.478H170.61C166.586,337.198,133.552,367.699,93.528,367.699z M167.367,282.188H19.689
			L93.528,90.207L167.367,282.188z M256,33.136c9.725,0,17.637,7.912,17.637,17.637S265.725,68.409,256,68.409
			s-17.637-7.912-17.637-17.637S246.275,33.136,256,33.136z M265.086,83.187V444.66h-18.171V83.187
			c2.892,0.812,5.938,1.256,9.086,1.256S262.193,83.999,265.086,83.187z M350.063,460.693c5.01,0,9.086,4.076,9.086,9.086
			c0,5.01-4.076,9.086-9.086,9.086H161.937c-5.01,0-9.086-4.076-9.086-9.086c0-5.01,4.076-9.086,9.086-9.086H350.063z
			 M418.472,90.207l73.839,191.981H344.633L418.472,90.207z M418.472,367.699c-40.024,0-73.058-30.501-77.083-69.478h154.165
			C491.53,337.198,458.495,367.699,418.472,367.699z"/>
	</symbol>
	<symbol id="briefcase" viewBox="0 0 511 511">
	<path d="M471.5,104H351V81.495c7.048-2.408,12.782-8.111,15.002-15.478c1.809-6.01,1.17-12.365-1.8-17.895
	c-2.971-5.53-7.917-9.573-13.927-11.382C322.59,28.405,289.817,24,255.5,24s-67.09,4.405-94.775,12.74
	c-6.011,1.809-10.957,5.852-13.927,11.382c-2.97,5.53-3.609,11.885-1.799,17.899c1.816,6.022,5.868,10.973,11.409,13.943
	c1.164,0.624,2.366,1.135,3.592,1.551V104H39.5C17.72,104,0,121.72,0,143.5v139.209c0,12.653,6.07,24.305,16,31.709V447.5
	c0,21.78,17.72,39.5,39.5,39.5h400c21.78,0,39.5-17.72,39.5-39.5V314.418c9.93-7.404,16-19.056,16-31.709V143.5
	C511,121.72,493.28,104,471.5,104z M160.013,55.22c1.074-2,2.863-3.462,5.036-4.116C191.35,43.186,222.627,39,255.5,39
	s64.15,4.186,90.452,12.104c2.173,0.654,3.961,2.116,5.036,4.116c1.075,2,1.306,4.3,0.652,6.472
	c-1.074,3.565-4.418,6.055-8.131,6.055c-0.83,0-1.654-0.122-2.458-0.365C316.326,59.936,286.744,56,255.5,56
	s-60.826,3.936-85.56,11.384c-2.165,0.655-4.453,0.427-6.447-0.642c-2.007-1.076-3.475-2.87-4.132-5.049
	C158.707,59.52,158.938,57.22,160.013,55.22z M175,81.535C198.197,74.645,226.006,71,255.5,71c29.496,0,57.308,3.646,80.5,10.535
	V104H175V81.535z M455.5,472h-400C41.991,472,31,461.009,31,447.5V322.014c61.606,25.367,126.462,40.001,193,43.547v1.938
	c0,17.369,14.131,31.5,31.5,31.5s31.5-14.131,31.5-31.5v-1.939c66.539-3.547,131.395-18.18,193-43.547V447.5
	C480,461.009,469.009,472,455.5,472z M336,345.757c-16.219,2.286-32.568,3.882-49.024,4.781C286.464,333.613,272.546,320,255.5,320
	s-30.964,13.613-31.476,30.538c-16.456-0.899-32.805-2.495-49.024-4.781V279.5c0-9.098,7.402-16.5,16.5-16.5h128
	c9.098,0,16.5,7.402,16.5,16.5V345.757z M272,351.5v16c0,9.098-7.402,16.5-16.5,16.5s-16.5-7.402-16.5-16.5v-16
	c0-9.098,7.402-16.5,16.5-16.5S272,342.402,272,351.5z M496,282.709c0,9.863-5.965,18.777-15.198,22.71
	C438.94,323.253,395.497,335.964,351,343.443V279.5c0-17.369-14.131-31.5-31.5-31.5h-128c-17.369,0-31.5,14.131-31.5,31.5v63.943
	c-44.497-7.478-87.939-20.19-129.802-38.024C20.965,301.486,15,292.572,15,282.709V143.5c0-13.509,10.991-24.5,24.5-24.5h432
	c13.509,0,24.5,10.991,24.5,24.5V282.709z"/>
	</symbol>
	<symbol id="lock" viewBox="0 0 591.6 591.6">
		<path d="M540.6,224.4h-51v-30.6C489.6,86.904,402.696,0,295.8,0S102,86.904,102,193.8v30.6H51c-28.152,0-51,22.848-51,51v265.2
			c0,28.152,22.848,51,51,51h489.6c28.152,0,51-22.848,51-51V275.4C591.6,247.248,568.752,224.4,540.6,224.4z M122.4,193.8
			c0-95.676,77.724-173.4,173.4-173.4s173.4,77.724,173.4,173.4v30.6H122.4V193.8z M571.2,540.6c0,16.932-13.668,30.6-30.6,30.6H51
			c-16.932,0-30.6-13.668-30.6-30.6V275.4c0-16.932,13.668-30.6,30.6-30.6h489.6c16.932,0,30.6,13.668,30.6,30.6V540.6z"/>
		    <path d="M295.8,285.6c-29.376,0-56.1,18.36-66.708,45.9c-9.996,26.316-3.672,55.692,15.504,73.44v74.46
			c0,18.156,9.792,35.088,25.5,44.268c7.752,4.488,16.524,6.732,25.5,6.732s17.748-2.448,25.5-6.732
			c15.708-9.18,25.5-25.908,25.5-44.064v-74.46c19.176-17.748,25.704-47.124,15.504-73.44C351.9,303.96,325.176,285.6,295.8,285.6z
			 M330.48,392.088c-2.448,1.836-3.876,4.896-3.876,8.16v79.356c0,10.812-5.916,21.012-15.3,26.52c-9.384,5.304-21.216,5.304-30.6,0
			c-9.384-5.508-15.3-15.504-15.3-26.52v-79.356c0-3.06-1.428-6.12-3.876-8.16c-15.096-11.832-20.604-33.66-13.056-53.448
			c7.548-19.584,26.724-32.64,47.532-32.64c20.808,0,40.188,13.056,47.532,32.64C350.88,358.428,345.576,380.256,330.48,392.088z"/>
		    <path d="M132.6,270.3H51c-2.856,0-5.1,2.244-5.1,5.1V357c0,2.856,2.244,5.1,5.1,5.1s5.1-2.244,5.1-5.1v-76.5h76.5
			c2.856,0,5.1-2.244,5.1-5.1S135.456,270.3,132.6,270.3z"/>
	</symbol>
	<symbol id="inst" viewBox="0 0 300 300">
	<path id="XMLID_505_" d="M38.52,0.012h222.978C282.682,0.012,300,17.336,300,38.52v222.978c0,21.178-17.318,38.49-38.502,38.49
		H38.52c-21.184,0-38.52-17.313-38.52-38.49V38.52C0,17.336,17.336,0.012,38.52,0.012z M218.546,33.329
		c-7.438,0-13.505,6.091-13.505,13.525v32.314c0,7.437,6.067,13.514,13.505,13.514h33.903c7.426,0,13.506-6.077,13.506-13.514
		V46.854c0-7.434-6.08-13.525-13.506-13.525H218.546z M266.084,126.868h-26.396c2.503,8.175,3.86,16.796,3.86,25.759
		c0,49.882-41.766,90.34-93.266,90.34c-51.487,0-93.254-40.458-93.254-90.34c0-8.963,1.37-17.584,3.861-25.759H33.35v126.732
		c0,6.563,5.359,11.902,11.916,11.902h208.907c6.563,0,11.911-5.339,11.911-11.902V126.868z M150.283,90.978
		c-33.26,0-60.24,26.128-60.24,58.388c0,32.227,26.98,58.375,60.24,58.375c33.278,0,60.259-26.148,60.259-58.375
		C210.542,117.105,183.561,90.978,150.283,90.978z"/>
    </symbol>
	<symbol id="fc" viewBox="0 0 310 310">
		<path id="XMLID_835_" d="M81.703,165.106h33.981V305c0,2.762,2.238,5,5,5h57.616c2.762,0,5-2.238,5-5V165.765h39.064
		c2.54,0,4.677-1.906,4.967-4.429l5.933-51.502c0.163-1.417-0.286-2.836-1.234-3.899c-0.949-1.064-2.307-1.673-3.732-1.673h-44.996
		V71.978c0-9.732,5.24-14.667,15.576-14.667c1.473,0,29.42,0,29.42,0c2.762,0,5-2.239,5-5V5.037c0-2.762-2.238-5-5-5h-40.545
		C187.467,0.023,186.832,0,185.896,0c-7.035,0-31.488,1.381-50.804,19.151c-21.402,19.692-18.427,43.27-17.716,47.358v37.752H81.703
		c-2.762,0-5,2.238-5,5v50.844C76.703,162.867,78.941,165.106,81.703,165.106z"/>
    </symbol>
	<symbol id="tw" viewBox="0 0 310 310">
		<path id="XMLID_827_" d="M302.973,57.388c-4.87,2.16-9.877,3.983-14.993,5.463c6.057-6.85,10.675-14.91,13.494-23.73
		c0.632-1.977-0.023-4.141-1.648-5.434c-1.623-1.294-3.878-1.449-5.665-0.39c-10.865,6.444-22.587,11.075-34.878,13.783
		c-12.381-12.098-29.197-18.983-46.581-18.983c-36.695,0-66.549,29.853-66.549,66.547c0,2.89,0.183,5.764,0.545,8.598
		C101.163,99.244,58.83,76.863,29.76,41.204c-1.036-1.271-2.632-1.956-4.266-1.825c-1.635,0.128-3.104,1.05-3.93,2.467
		c-5.896,10.117-9.013,21.688-9.013,33.461c0,16.035,5.725,31.249,15.838,43.137c-3.075-1.065-6.059-2.396-8.907-3.977
		c-1.529-0.851-3.395-0.838-4.914,0.033c-1.52,0.871-2.473,2.473-2.513,4.224c-0.007,0.295-0.007,0.59-0.007,0.889
		c0,23.935,12.882,45.484,32.577,57.229c-1.692-0.169-3.383-0.414-5.063-0.735c-1.732-0.331-3.513,0.276-4.681,1.597
		c-1.17,1.32-1.557,3.16-1.018,4.84c7.29,22.76,26.059,39.501,48.749,44.605c-18.819,11.787-40.34,17.961-62.932,17.961
		c-4.714,0-9.455-0.277-14.095-0.826c-2.305-0.274-4.509,1.087-5.294,3.279c-0.785,2.193,0.047,4.638,2.008,5.895
		c29.023,18.609,62.582,28.445,97.047,28.445c67.754,0,110.139-31.95,133.764-58.753c29.46-33.421,46.356-77.658,46.356-121.367
		c0-1.826-0.028-3.67-0.084-5.508c11.623-8.757,21.63-19.355,29.773-31.536c1.237-1.85,1.103-4.295-0.33-5.998
		C307.394,57.037,305.009,56.486,302.973,57.388z"/>
    </symbol>
	<symbol id="viber" viewBox="0 0 504 504">
		<path d="M377.6,0H126C56.8,0,0,56.8,0,126.4V378c0,69.2,56.8,126,126,126h251.6c69.6,0,126.4-56.8,126.4-126.4V126.4
			C504,56.8,447.2,0,377.6,0z M238.4,103.6c0.8-12.4,12.4-8,18.4-8.8c75.2,2.4,140,70,139.2,142.8c0,7.2,2.4,17.6-8.4,17.6
			c-10.4,0-7.6-10.8-8.8-18c-10-77.2-46-113.6-124.4-125.6C248,110.8,238,112,238.4,103.6z M350.8,240.8c-12,1.6-9.6-8.8-10.8-15.6
			c-8-47.2-24.8-64.4-73.2-74.8c-7.2-1.6-18.4-0.4-16.4-11.2c1.6-10.4,11.6-6.8,19.2-6c48.4,5.6,88,46.8,87.6,92
			C356.4,230,359.6,239.2,350.8,240.8z M320.8,216c0,6.4-0.8,12.4-8,13.2c-5.2,0.8-8.4-3.6-9.2-8.8c-2-19.2-12.4-30.8-32.4-34
			c-6-0.8-11.6-2.8-8.8-10.8c2-5.2,6.8-6,12-6C296,169.2,320.8,194.4,320.8,216z M396.8,363.6c-8.4,22.8-36.8,46-61.2,45.6
			c-3.6-0.8-10.4-2-16.4-4.4C212,359.6,134,285.2,90,178.8c-14.8-35.6,0.8-66,38-78c6.8-2.4,13.2-2.4,20,0
			c16,5.6,56.4,60.4,57.2,76.4c0.8,12.4-8,19.2-16.4,24.8c-16.4,10.8-16.4,24.4-9.2,40c15.6,34.4,42.4,58.4,77.2,73.6
			c12.4,5.6,24.8,5.2,33.2-7.6c15.2-22.8,34-21.6,54.4-7.6c10.4,7.2,20.8,14,30.4,21.6C388,332.8,404.8,341.6,396.8,363.6z"/>
	</symbol>
		<symbol id="down" viewBox="0 0 460.088 460.088">
			<path d="M25.555,139.872h257.526V88.761H25.555C11.442,88.761,0,100.203,0,114.316C0,128.429,11.442,139.872,25.555,139.872z"/>
			<path d="M25.555,242.429h257.526v-51.111H25.555C11.442,191.318,0,202.76,0,216.874C0,230.988,11.442,242.429,25.555,242.429z"/>
			<path d="M25.555,293.874v0.001C11.442,293.875,0,305.316,0,319.43s11.442,25.555,25.555,25.555h178.91
				c-2.021-6.224-3.088-12.789-3.088-19.523c0-11.277,2.957-22.094,8.48-31.588H25.555z"/>
			<path d="M450.623,302.611c-12.62-12.621-33.083-12.621-45.704,0l-26.535,26.535V52.926c0-17.849-14.469-32.317-32.318-32.317
				s-32.318,14.469-32.318,32.317v276.22l-26.535-26.535c-12.621-12.62-33.083-12.621-45.704,0
				c-12.621,12.621-12.621,33.083,0,45.704l81.7,81.699c12.596,12.6,33.084,12.643,45.714,0l81.7-81.699
				C463.243,335.694,463.244,315.232,450.623,302.611z"/>
	</symbol>
</svg>